<svg width="227" height="52" fill="none" xmlns="http://www.w3.org/2000/svg"><path d="M68.096 36c-1.515 0-2.699-.213-3.552-.64-.853-.427-1.45-1.067-1.792-1.92-.341-.853-.512-1.91-.512-3.168v-7.136c0-2.048.459-3.552 1.376-4.512.917-.981 2.41-1.472 4.48-1.472h9.632c1.472 0 2.592.085 3.36.256.79.15 1.184.31 1.184.48l-.64 2.656c-.363-.064-1.44-.128-3.232-.192-1.77-.085-4.352-.128-7.744-.128h-1.632c-1.707 0-2.56.757-2.56 2.272v8.16c0 .725.181 1.29.544 1.696.384.384 1.056.576 2.016.576h1.312c3.541 0 6.283-.032 8.224-.096 1.963-.085 3.179-.17 3.648-.256l1.312 2.112c0 .107-.181.267-.544.48-.341.213-.981.405-1.92.576-.939.17-2.293.256-4.064.256h-8.896Zm22.108 0c-1.621 0-2.794-.373-3.52-1.12-.725-.768-1.088-1.813-1.088-3.136 0-1.387.374-2.453 1.12-3.2.768-.747 1.93-1.12 3.488-1.12h1.632c1.6 0 3.04.043 4.32.128 1.28.085 2.336.17 3.168.256v-2.112c0-.192-.021-.384-.064-.576-.042-.213-.17-.384-.384-.512-.213-.128-.576-.192-1.088-.192h-1.6c-2.325 0-4.266.043-5.824.128-1.557.064-2.613.128-3.168.192l-.352-2.432c0-.299.81-.48 2.432-.544 1.622-.064 4.33-.096 8.128-.096h1.6c1.067 0 1.888.15 2.464.448.576.299.982.672 1.216 1.12.256.448.406.907.448 1.376.064.448.096.832.096 1.152V36h-2.624l-1.248-.64c-.896.15-1.973.299-3.232.448-1.258.128-2.698.192-4.32.192h-1.6Zm.832-2.752h7.328c.47 0 .747-.043.832-.128.086-.085.128-.352.128-.8v-2.464h-8.288c-.576 0-.981.139-1.216.416-.213.277-.32.715-.32 1.312 0 .597.128 1.024.384 1.28s.64.384 1.152.384ZM106.92 36V21.664h2.624l1.216.64a8.253 8.253 0 0 1 1.792-.704c.64-.17 1.451-.256 2.432-.256 1.557 0 2.816.17 3.776.512.981.341 1.632.597 1.952.768l-1.12 2.784c-.256-.128-.683-.288-1.28-.48a15.237 15.237 0 0 0-2.048-.576 12.266 12.266 0 0 0-2.592-.256h-.352c-1.024 0-1.696.203-2.016.608-.299.405-.459 1.077-.48 2.016V36h-3.904Zm19.935 0c-1.066 0-1.888-.139-2.464-.416-.576-.277-.992-.63-1.248-1.056a3.861 3.861 0 0 1-.448-1.344c-.042-.47-.064-.896-.064-1.28V25.76c0-.32.022-.704.064-1.152a4.18 4.18 0 0 1 .448-1.376c.256-.448.672-.821 1.248-1.12.598-.299 1.419-.448 2.464-.448h6.88c1.408 0 2.507.139 3.296.416.811.256 1.376.683 1.696 1.28.342.597.512 1.397.512 2.4v4.736h-5.6c-1.92 0-3.488-.043-4.704-.128a158.32 158.32 0 0 0-2.4-.16v1.76c-.021.853.491 1.28 1.536 1.28h1.632c1.152 0 2.272-.01 3.36-.032 1.11-.043 2.123-.085 3.04-.128.918-.064 1.654-.117 2.208-.16l1.28 2.08c0 .661-2.101.992-6.304.992h-6.432Zm-.32-8.256h8.8v-2.048c0-.427-.053-.725-.16-.896-.085-.17-.362-.277-.832-.32-.469-.043-1.269-.064-2.4-.064h-3.872c-1.024 0-1.536.427-1.536 1.28v2.048ZM147.019 36c-1.451 0-2.517-.064-3.2-.192-.683-.128-1.024-.277-1.024-.448l1.28-2.784c.491.085 1.707.17 3.648.256 1.963.064 4.651.096 8.064.096h.608c.917 0 1.568-.16 1.952-.48.384-.341.576-.907.576-1.696v-.64c0-.747-.16-1.28-.48-1.6-.299-.32-.981-.48-2.048-.48h-7.424c-2.155 0-3.723-.395-4.704-1.184-.981-.81-1.472-2.123-1.472-3.936V22.4c0-.939.171-1.803.512-2.592.363-.79.971-1.419 1.824-1.888.853-.49 2.027-.736 3.52-.736h8.704c1.451 0 2.624.075 3.52.224.896.15 1.344.31 1.344.48l-.64 2.688c-.555-.064-1.813-.128-3.776-.192-1.963-.085-4.597-.128-7.904-.128l-.352-.032c-.981 0-1.643.203-1.984.608-.341.384-.523.875-.544 1.472v.544c0 .704.192 1.237.576 1.6.405.341 1.067.512 1.984.512h7.104c1.365 0 2.528.139 3.488.416.96.277 1.696.79 2.208 1.536.512.725.768 1.803.768 3.232v.512c0 1.6-.416 2.89-1.248 3.872-.811.981-2.229 1.472-4.256 1.472h-10.624Zm23.868 0c-1.067 0-1.888-.139-2.464-.416-.576-.277-.992-.63-1.249-1.056a3.86 3.86 0 0 1-.447-1.344c-.043-.47-.064-.896-.064-1.28V25.76c0-.32.021-.704.064-1.152.064-.47.213-.928.447-1.376.257-.448.673-.821 1.249-1.12.597-.299 1.418-.448 2.464-.448h6.88c1.408 0 2.506.139 3.295.416.811.256 1.377.683 1.697 1.28.341.597.512 1.397.512 2.4v4.736h-5.6c-1.92 0-3.488-.043-4.704-.128a160.13 160.13 0 0 0-2.4-.16v1.76c-.022.853.49 1.28 1.536 1.28h1.632c1.152 0 2.272-.01 3.36-.032 1.109-.043 2.122-.085 3.04-.128.917-.064 1.653-.117 2.208-.16l1.28 2.08c0 .661-2.102.992-6.304.992h-6.432Zm-.32-8.256h8.8v-2.048c0-.427-.054-.725-.16-.896-.086-.17-.363-.277-.832-.32-.47-.043-1.27-.064-2.4-.064h-3.872c-1.024 0-1.536.427-1.536 1.28v2.048ZM186.826 36V21.664h2.624l1.28.64c.896-.17 1.974-.32 3.232-.448 1.259-.128 2.699-.192 4.32-.192h1.6c1.067 0 1.888.15 2.464.448.576.299.982.672 1.216 1.12.256.448.406.907.448 1.376.064.448.096.832.096 1.152V36h-3.904V25.696c0-.853-.512-1.28-1.536-1.28h-6.976c-.405 0-.672.043-.8.128-.106.064-.16.256-.16.576V36h-3.904Zm24.873 0c-1.067 0-1.888-.139-2.464-.416-.576-.277-.992-.63-1.248-1.056a3.84 3.84 0 0 1-.448-1.344c-.043-.47-.064-.896-.064-1.28V25.76c0-.32.021-.704.064-1.152.064-.47.213-.928.448-1.376.256-.448.672-.821 1.248-1.12.597-.299 1.419-.448 2.464-.448h1.632c1.963 0 3.541.043 4.736.128 1.216.064 2.144.139 2.784.224v-6.304h3.904V36h-2.624l-1.248-.64c-.896.15-1.973.299-3.232.448-1.259.128-2.709.192-4.352.192h-1.6Zm1.216-2.752h6.944c.448 0 .725-.053.832-.16.107-.107.16-.373.16-.8V24.64c-.725-.043-1.643-.085-2.752-.128a61.817 61.817 0 0 0-3.552-.096h-1.632c-1.024 0-1.536.427-1.536 1.28v6.272c0 .853.512 1.28 1.536 1.28ZM49.266 41.085h.26l1.016-11.956L52 26.033l-.45-6.653c.11-1.381-1.104-2.16-1.86-2.478l-1.375 3.4-.371-2.937.23-.182-.063-.799.568-.2a.426.426 0 0 1-.095-.228v-.74c.226-.266.398-.806.499-1.418.142-.055.234-.137.356-.78.084-.454-.05-.734-.08-.734.056-.412.133-1.227-.069-1.635 0 0 .139-.266.139-.62-.583.089-2.443-1.18-2.998-.147-.807-.089-1.287 1.118-.922 2.402 0 0-.452-.022-.27.648.168.632.305.775.54.866.104.612.273 1.152.5 1.419v.739c0 .04-.013.083-.033.13l.733.259-.065.838.23.182-.382 3.03-1.73-3.443a9.856 9.856 0 0 0-.87.372l-.583 4.33-.252-3.732c.142-1.798-1.557-2.76-2.45-3.093a1.39 1.39 0 0 1-.175-.08L39.27 18.29l-.404-3.194.25-.2-.068-.867.668-.235c-.004-.017-.007-.034-.007-.05v-.901c.274-.325.483-.984.608-1.73.173-.067.286-.168.433-.952.105-.554-.058-.895-.099-.895.07-.503.166-1.496-.082-1.995 0 0 .17-.324.17-.755-.711.107-2.981-1.44-3.66-.18-.981-.109-1.567 1.364-1.122 2.93 0 0-.551-.028-.33.792.205.769.371.944.66 1.055.126.746.333 1.405.609 1.73v.817l.92.327-.07.91.248.199-.416 3.295-1.8-3.585-.05.022c-.466.174-1.441.518-2.236 1.061l-.793 5.898-.367-5.422a2.251 2.251 0 0 0-.015-.495c-.225-1.745-2.36-2.719-3.36-3.1l-1.993 4.237-.494-3.904.303-.242-.085-1.111.822-.292v-1.043c.322-.38.567-1.153.713-2.028.339-.128.533-.334.776-1.236.257-.96-.39-.927-.39-.927.523-1.836-.164-3.56-1.315-3.433-.795-1.475-3.453.337-4.286.21 0 .506.199.885.199.885-.29.584-.178 1.75-.096 2.338-.048 0-.632.006-.384.927.244.902.435 1.108.776 1.236.146.875.39 1.648.711 2.028v1.043l.972.344-.083 1.06.305.24-.526 4.158-2.114-4.49c-1.09.415-3.535 1.537-3.374 3.595l-.274 4.06-.61-4.536c-.795-.543-1.772-.887-2.236-1.06a1.353 1.353 0 0 1-.051-.023l-1.8 3.585-.417-3.295.248-.199-.07-.91.92-.327v-.817c.274-.325.485-.984.608-1.73.29-.11.456-.286.663-1.055.22-.82-.332-.792-.332-.792.445-1.566-.14-3.039-1.122-2.93-.679-1.26-2.948.287-3.66.18 0 .431.17.755.17.755-.246.499-.152 1.492-.082 1.995-.041 0-.204.341-.1.895.15.784.261.885.436.952.123.746.33 1.405.606 1.73v.901c0 .016-.003.033-.005.05l.667.235-.069.868.25.199-.402 3.195-1.434-3.543c-.062.033-.122.06-.175.08-.893.334-2.59 1.295-2.448 3.093l-.254 3.74-.584-4.338a9.63 9.63 0 0 0-.868-.372l-1.73 3.444-.382-3.031.229-.182-.065-.838.735-.26a.303.303 0 0 1-.034-.13v-.738c.224-.267.397-.807.498-1.419.238-.09.374-.234.543-.866.18-.67-.27-.648-.27-.648.364-1.284-.117-2.49-.922-2.402-.555-1.032-2.417.236-3 .148 0 .353.139.619.139.619-.202.408-.125 1.223-.067 1.635-.032 0-.166.28-.08.734.12.643.212.725.354.78.103.612.273 1.152.499 1.419v.739a.423.423 0 0 1-.093.229l.566.2-.064.798.23.182-.37 2.936-1.376-3.399C1.554 17.222.341 18 .45 19.38L0 26.033l1.458 3.096 1.017 11.956h.26l-.004.183-1.554 1.78.517.647 3.108-1.038v-1.572h.152l.022-8.873 1.768 8.873h.418l.017.113-.301 1.55.637.927 1.227-.093.481-.995-.146-1.502h.146l-.728-11.956.543-1.153.865 1.838 1.24 14.584h.317l-.005.224-1.894 2.17.632.79 3.789-1.267V44.4h.185l.03-10.824 2.156 10.823h.509l.022.138-.368 1.893.776 1.13 1.497-.115.587-1.213-.178-1.833h.178l-.889-14.584 1.06-2.252 1.287 2.736V46.01h.39l-.003.083-2.365 2.711.788.986 4.733-1.582V46.01l1.485-11.305L27.35 46.01h.152v2.198l4.732 1.582.79-.986-2.368-2.711-.002-.083h.239V30.3l1.423-3.027 1.2 2.543-.89 14.584h.178l-.178 1.832.586 1.214 1.497.114.778-1.13-.37-1.892.022-.138h.509l2.158-10.824.028 10.824h.185v1.917l3.79 1.267.631-.79-1.894-2.17-.006-.224h.317l1.24-14.584.866-1.838.543 1.152-.728 11.956h.145l-.145 1.502.481.995 1.227.093.637-.927-.302-1.55.017-.113h.418l1.768-8.873.024 8.873h.153v1.573l3.106 1.037.517-.647-1.554-1.78-.003-.183Z" fill="#007FC6"/></svg>